<svg width="177" height="60">
<path d="M43.8915 16.9934L23.05 8.84502C19 11.0544 15.2631 13.7947 11.9387 16.9934C15.2665 20.1882 19.0027 22.9282 23.05 25.1418L43.8915 16.9934Z" fill="#25282A"/>
<path d="M0.441284 0.00143433C0.441284 0.00143433 2.64819 7.17454 9.88963 14.9015C13.1003 12.434 16.9702 10.1859 21.5676 8.25805L0.441284 1.14441e-05V0.00143433Z" fill="#25282A"/>
<path d="M0.441284 33.9812C0.441284 33.9812 2.64819 26.8124 9.88963 19.0826C13.1003 21.55 16.9702 23.7925 21.5676 25.7232L0.441284 33.9812Z" fill="#25282A"/>
<path d="M106.475 58.0522H100.58V51.5952H105.031V53.5359H106.523V48.2165H105.031V50.1315H100.58V43.9792H106.246V46.1349H107.712V41.778H106.22V42.4928H95.8407V43.7514H97.7315V58.243H95.8393V59.5159H107.967V55.8197H106.475V58.0522ZM170.634 42.4928V43.7514H172.556V54.5439L163.753 42.4928H159.338V43.7514H161.166L161.771 44.6043V58.243H159.853V59.5159H165.288V58.243H163.364V46.7756L172.825 59.7992H174.154V43.7514H176.05V42.4928H170.636H170.634ZM148.708 42.1852C144.035 42.1852 140.228 46.152 140.228 51.03C140.228 55.8894 144.035 59.8434 148.708 59.8434C153.349 59.8434 157.118 55.8766 157.118 51.0015C157.118 46.1391 153.349 42.1852 148.709 42.1852H148.708ZM148.709 58.196C145.551 58.196 143.353 55.2345 143.353 51.0015C143.353 46.777 145.571 43.8326 148.738 43.8326C151.834 43.8326 153.999 46.777 153.999 51.0015C153.999 55.2359 151.826 58.196 148.709 58.196ZM82.064 54.7305L76.3318 42.4928H71.5791V43.7514H73.4984V58.243H71.5791V59.5159H77.0166V58.243H75.0973V46.4339L81.4461 60L87.4744 46.7329V58.243H85.5808V59.5159H92.22V58.243H90.3163V43.7514H92.22V42.4928H87.7036L82.064 54.7305ZM122.443 58.0522H116.845V43.7514H118.747V42.4928H112.095V43.7514H113.995V58.243H112.095V59.5159H123.938V55.8197H122.443V58.0522ZM137.033 58.0522H131.42V43.7514H133.316V42.4928H126.673V43.7514H128.578V58.243H126.673V59.5159H138.516V55.8197H137.033V58.0522ZM56.4157 43.7514H58.5941L54.9349 49.7855L51.0053 43.7514H52.9786V42.4928H46.1045V43.7514H47.6394L52.8163 51.7105V58.243H50.9198V59.5159H57.559V58.243H55.6369V51.561L60.4237 43.7514H61.8033V42.4928H56.4157V43.7514ZM21.5825 50.5288C23.1985 50.0689 24.7063 48.8102 24.7063 46.797C24.7063 44.1814 22.7657 42.4928 19.7543 42.4928H11.9377V43.7514H13.8356V58.243H11.9391V59.5159H20.2014C23.3893 59.5159 25.5179 57.7034 25.5179 54.9996C25.5179 52.3256 23.5986 50.9673 21.5825 50.5288ZM16.6846 43.9792H18.7719C19.8796 43.9792 21.7362 44.3608 21.7362 46.8966C21.7362 49.0039 20.1772 49.9507 18.6324 49.9507H16.6846V43.9792ZM18.8659 58.0522H16.6846V51.4215H18.8659C21.1354 51.4215 22.6005 52.7741 22.6005 54.87C22.6005 57.215 20.5929 58.0522 18.8659 58.0522ZM39.3885 43.7514H41.3177V54.5439L32.5044 42.4928H28.1034V43.7514H29.9231L30.5239 44.6043V58.2487H28.6004V59.5159H34.0378V58.2487H32.1228V46.7756L41.5854 59.7992H42.9081V43.7514H44.806V42.4928H39.3885V43.7514Z" fill="#25282A"/>
</svg>
