<svg width="158" height="60">
<path fill-rule="evenodd" clip-rule="evenodd" d="M72.3201 8.79834H83.2421V11.7609H75.6395V16.4188H81.6538V19.3635H75.6395V26.6984H72.3201V8.79834Z" fill="#25282A"/>
<path fill-rule="evenodd" clip-rule="evenodd" d="M93.0223 14.5627H96.1989V26.7876H93.0223V25.003C92.6872 25.5942 92.2024 26.0869 91.6166 26.4315C91.0308 26.7761 90.3646 26.9605 89.685 26.9661C86.8295 26.9661 84.9021 25.1814 84.9021 21.7549V14.6163H88.0966V21.2195C88.0966 23.1826 89.2923 23.9143 90.3988 23.9143C90.7661 23.9359 91.1337 23.876 91.4752 23.739C91.8166 23.6021 92.1237 23.3914 92.3743 23.122C92.6249 22.8526 92.813 22.5312 92.925 22.1807C93.037 21.8303 93.0702 21.4594 93.0223 21.0946V14.5627Z" fill="#25282A"/>
<path fill-rule="evenodd" clip-rule="evenodd" d="M103.926 14.5628H106.496V17.1149H103.926V26.6984H100.785V17.1149H98.5723V14.5628H100.785V9.94055H103.926V14.5628Z" fill="#25282A"/>
<path fill-rule="evenodd" clip-rule="evenodd" d="M116.847 14.5627H119.934V26.7876H116.847V25.003C116.509 25.5956 116.021 26.089 115.432 26.4336C114.843 26.7781 114.174 26.9618 113.492 26.9661C110.636 26.9661 108.727 25.1814 108.727 21.7549V14.6163H111.921V21.2195C111.921 23.1826 113.117 23.9143 114.224 23.9143C114.591 23.9359 114.958 23.876 115.3 23.739C115.641 23.6021 115.948 23.3914 116.199 23.122C116.45 22.8526 116.638 22.5312 116.75 22.1807C116.862 21.8303 116.895 21.4594 116.847 21.0946V14.5627Z" fill="#25282A"/>
<path fill-rule="evenodd" clip-rule="evenodd" d="M126.752 26.7877H123.593V14.5628H126.752V17.4183C126.881 16.5847 127.291 15.8204 127.914 15.2523C128.537 14.6841 129.336 14.3464 130.178 14.2951C130.869 14.2759 131.555 14.4228 132.177 14.7234L131.642 17.5789C131.073 17.3568 130.467 17.2477 129.857 17.2577C127.698 17.2577 126.805 19.1672 126.805 22.3974L126.752 26.7877Z" fill="#25282A"/>
<path fill-rule="evenodd" clip-rule="evenodd" d="M142.582 19.524C142.501 18.7922 142.143 18.1187 141.583 17.6411C141.023 17.1636 140.301 16.9179 139.565 16.9541C138.805 16.8924 138.05 17.1245 137.456 17.6025C136.862 18.0806 136.473 18.7683 136.371 19.524H142.582ZM145.633 21.6835H136.389C136.508 22.4599 136.921 23.161 137.542 23.6424C138.163 24.1238 138.944 24.3489 139.726 24.2712C140.326 24.3028 140.924 24.1759 141.46 23.9034C141.995 23.6309 142.45 23.2223 142.778 22.7186L145.187 24.0214C144.422 25.1748 143.309 26.0544 142.01 26.5326C140.711 27.0108 139.293 27.0628 137.962 26.6809C136.632 26.299 135.458 25.5032 134.61 24.4089C133.762 23.3146 133.285 21.9786 133.248 20.5948C133.215 19.7572 133.356 18.9219 133.662 18.1415C133.968 17.3612 134.433 16.6527 135.026 16.0608C135.62 15.4689 136.33 15.0064 137.111 14.7025C137.892 14.3986 138.728 14.2599 139.565 14.295C140.392 14.2693 141.214 14.4151 141.981 14.7233C142.748 15.0316 143.443 15.4955 144.022 16.0859C144.6 16.6762 145.05 17.3801 145.343 18.1531C145.636 18.9261 145.765 19.7515 145.723 20.577C145.723 20.8804 145.723 21.3801 145.723 21.6656L145.633 21.6835Z" fill="#25282A"/>
<path fill-rule="evenodd" clip-rule="evenodd" d="M147.864 17.8645C148.011 16.8122 148.555 15.856 149.385 15.1922C150.215 14.5285 151.267 14.2075 152.326 14.2952C154.61 14.2952 156.948 15.3303 157.037 18.1144H154.039C153.982 17.7335 153.778 17.3901 153.471 17.1569C153.165 16.9237 152.78 16.819 152.397 16.8651C151.612 16.8651 150.862 17.1507 150.862 18.0608C150.862 18.5427 151.433 18.8818 152.129 19.0602L154.164 19.5599C155.062 19.6613 155.89 20.091 156.489 20.7664C157.089 21.4419 157.418 22.3153 157.412 23.2185C157.412 25.6813 154.985 26.9484 152.469 26.9484C151.88 27.0024 151.287 26.94 150.723 26.7647C150.159 26.5895 149.635 26.3048 149.181 25.9269C148.727 25.5491 148.351 25.0854 148.076 24.5625C147.802 24.0396 147.632 23.4677 147.579 22.8794H150.452C150.574 23.3624 150.868 23.7845 151.278 24.0669C151.689 24.3493 152.188 24.4727 152.683 24.4142C153.557 24.4142 154.271 23.8788 154.271 23.1828C154.271 22.4868 153.825 22.2548 152.95 22.0406L151.291 21.6301C148.15 20.7735 147.864 19.3458 147.864 17.9181" fill="#25282A"/>
<path fill-rule="evenodd" clip-rule="evenodd" d="M72.3201 33.248H83.2421V36.2106H75.6395V40.8507H81.6538V43.8132H75.6395V51.1303H72.3201V33.248Z" fill="#25282A"/>
<path fill-rule="evenodd" clip-rule="evenodd" d="M85.3391 50.721H88.4622V38.6032H85.3391V50.721ZM86.9096 32C87.416 32 87.9017 32.2012 88.2599 32.5593C88.618 32.9174 88.8192 33.4031 88.8192 33.9096C88.8192 34.416 88.618 34.9017 88.2599 35.2599C87.9017 35.618 87.416 35.8192 86.9096 35.8192C86.4031 35.8192 85.9174 35.618 85.5593 35.2599C85.2012 34.9017 85 34.416 85 33.9096C85 33.4031 85.2012 32.9174 85.5593 32.5593C85.9174 32.2012 86.4031 32 86.9096 32Z" fill="#25282A"/>
<path fill-rule="evenodd" clip-rule="evenodd" d="M95.6276 51.1302H92.4509V39.0124H95.6276V41.8679C95.7329 41.0275 96.1335 40.252 96.758 39.6799C97.3824 39.1077 98.19 38.7763 99.0363 38.7447C99.7296 38.7214 100.418 38.875 101.035 39.1909L100.5 42.0463C99.9342 41.8126 99.3269 41.6972 98.7151 41.7073C96.5556 41.7073 95.6811 43.6347 95.6811 46.8471L95.6276 51.1302Z" fill="#25282A"/>
<path fill-rule="evenodd" clip-rule="evenodd" d="M102.516 42.3498C102.667 41.2993 103.212 40.3457 104.041 39.6827C104.87 39.0197 105.92 38.6971 106.978 38.7805C109.262 38.7805 111.6 39.8156 111.707 42.5996H108.691C108.691 41.6895 107.763 41.3504 107.067 41.3504C106.371 41.3504 105.532 41.6359 105.532 42.5461C105.532 43.0458 106.103 43.3849 106.799 43.5634L108.834 44.0452C109.7 44.1645 110.495 44.5901 111.074 45.2449C111.654 45.8996 111.98 46.7403 111.993 47.6145C111.993 50.0773 109.548 51.3623 107.031 51.3623C106.44 51.4239 105.843 51.3677 105.274 51.197C104.704 51.0262 104.174 50.7444 103.715 50.3677C103.255 49.991 102.875 49.5269 102.595 49.0022C102.316 48.4776 102.144 47.9028 102.088 47.3111H105.122C105.237 47.7981 105.529 48.225 105.941 48.5086C106.354 48.7923 106.857 48.9125 107.353 48.8459C108.227 48.8459 108.923 48.3284 108.923 47.6324C108.923 46.9363 108.495 46.6865 107.602 46.4902L105.943 46.0619C102.802 45.2052 102.516 43.7775 102.516 42.3498Z" fill="#25282A"/>
<path fill-rule="evenodd" clip-rule="evenodd" d="M118.953 39.0125H121.523V41.5467H118.953V51.1303H115.812V41.5467H113.599V39.0125H115.812V34.3903H118.953V39.0125Z" fill="#25282A"/>
<path fill-rule="evenodd" clip-rule="evenodd" d="M15.6396 38.8161H45.0686V34.6936H15.6396V38.8161Z" fill="#25282A"/>
<path fill-rule="evenodd" clip-rule="evenodd" d="M37.3765 57.6264H33.2539V16.9185H55.687V21.041H37.3765V57.6264Z" fill="#25282A"/>
<path fill-rule="evenodd" clip-rule="evenodd" d="M27.454 57.6264H23.3493V21.041H5.00305V16.9185H27.454V57.6264Z" fill="#25282A"/>
<path fill-rule="evenodd" clip-rule="evenodd" d="M30.3628 4.1404C25.244 4.13687 20.2391 5.65155 15.9812 8.49286C11.7233 11.3342 8.40379 15.3744 6.44245 20.1026C4.48111 24.8308 3.96611 30.0344 4.96258 35.0553C5.95905 40.0762 8.42223 44.6888 12.0405 48.3096C15.6589 51.9305 20.2697 54.3968 25.29 55.3968C30.3102 56.3967 35.5142 55.8853 40.2437 53.9272C44.9732 51.9691 49.0158 48.6524 51.86 44.3964C54.7043 40.1405 56.2224 35.1367 56.2224 30.0178C56.2177 23.1593 53.4923 16.5827 48.6442 11.7312C43.7961 6.87982 37.2214 4.14985 30.3628 4.1404ZM30.3628 60C24.4279 60.0035 18.6252 58.2466 13.689 54.9515C8.75279 51.6564 4.90485 46.9713 2.63201 41.4888C0.359172 36.0062 -0.236431 29.9728 0.920556 24.1517C2.07754 18.3306 4.93513 12.9835 9.13178 8.78681C13.3284 4.59016 18.6756 1.73257 24.4966 0.575585C30.3177 -0.581402 36.3512 0.0142017 41.8337 2.28704C47.3162 4.55988 52.0014 8.40782 55.2965 13.344C58.5916 18.2802 60.3485 24.0829 60.345 30.0178C60.3308 37.9653 57.1674 45.5831 51.5478 51.2028C45.9281 56.8225 38.3102 59.9858 30.3628 60Z" fill="#25282A"/>
</svg>
