<svg width="253" height="62" >
<path d="M47.5029 1H51.6292V9.46316C54.4503 9.50526 57.2292 9.50526 60.0503 9.46316C60.0924 10.8947 60.1766 12.3684 60.0082 13.8421C57.2292 13.7158 54.4082 13.7579 51.6292 13.8C51.6292 16.6211 51.6713 19.4842 51.6292 22.3474C50.2398 22.3053 48.8503 22.3053 47.4608 22.3053V13.8C44.5556 13.7158 41.6503 13.7579 38.745 13.7579V9.46316C41.6503 9.50526 44.5556 9.50526 47.4608 9.46316C47.4608 6.6421 47.4608 3.82105 47.5029 1ZM0.050293 9.46316C10.4924 9.46316 20.9345 9.54737 31.4187 9.46316C31.5029 10.8526 31.4187 12.2842 31.5029 13.7158C22.4503 13.8 13.3977 13.7579 4.34503 13.7579V56.6632C18.7029 56.6632 33.1029 56.7053 47.4608 56.6211V29.5474H51.6292C51.6292 40.0316 51.7134 50.5158 51.6292 61C34.4082 60.9158 17.2292 60.9579 0.050293 60.9579V9.46316ZM67.7977 9.50526C129.313 9.50526 190.829 9.54737 252.345 9.50526V60.9579C190.787 60.9579 129.271 60.9158 67.7135 61C67.2924 60.2842 67.5029 59.4 67.4608 58.6421C67.4608 42.3895 67.4187 26.1368 67.4608 9.88421C67.545 9.8 67.7134 9.63158 67.7977 9.50526ZM89.7766 22.7263C86.9134 23.4421 84.2187 25.1263 82.5766 27.6105C79.0819 32.8316 79.6713 40.5789 84.3029 44.9158C89.524 49.6737 98.7871 49.2526 103.25 43.6526C107.377 38.4316 106.956 30.0526 101.945 25.5053C98.7029 22.6 93.9871 21.7579 89.7766 22.7263ZM110.492 22.3474C110.45 30.9368 110.45 39.5684 110.45 48.1579C111.882 48.1579 113.313 48.1579 114.745 48.1158C114.661 42.2211 114.871 36.2842 114.661 30.3895L115.124 30.6421C119.25 36.1579 123.419 41.6316 127.545 47.1474C128.471 48.6632 130.535 48.1158 132.008 48.0316C131.924 39.5263 131.966 30.9789 131.966 22.4737C130.535 22.4316 129.061 22.2632 127.629 22.4737C127.713 28.3684 127.545 34.2632 127.713 40.1158C123.208 34.5579 118.913 28.7895 114.492 23.1474C113.608 21.8842 111.798 22.6421 110.492 22.3474ZM137.65 22.3895C137.692 30.9789 137.65 39.5263 137.65 48.0737C142.913 48.1158 148.219 48.1579 153.482 48.0316C153.44 46.8105 153.44 45.5895 153.44 44.3684C149.65 44.3684 145.861 44.2842 142.071 44.3684C141.903 41.8 141.903 39.1895 142.071 36.5789C144.892 36.6632 147.713 36.6211 150.534 36.6211C150.534 35.4421 150.535 34.2211 150.492 33C147.671 33.0842 144.85 32.9579 142.029 33.0842C141.819 30.8105 142.071 28.4947 141.903 26.2211C145.734 25.9263 149.608 26.1789 153.482 26.0947C153.44 24.8737 153.44 23.6105 153.482 22.3895C148.219 22.3053 142.913 22.3053 137.65 22.3895ZM159.124 22.4316C159.166 30.9368 159.166 39.4842 159.124 48.0316C160.303 48.0316 161.44 48.0316 162.577 48.0737V38.0526C165.313 37.9684 168.177 38.3474 170.829 37.5053C172.934 36.8316 174.871 35.3579 175.713 33.2947C176.892 30.5158 176.471 26.9789 174.324 24.7895C172.556 23.0211 169.903 22.4316 167.461 22.3474C164.682 22.3474 161.903 22.2632 159.124 22.4316ZM180.766 48.1579C185.524 48.0737 190.24 48.1579 194.998 48.1579C194.998 47.1474 195.04 46.1789 194.956 45.2105C191.334 45.2947 187.756 45.2105 184.134 45.2526C184.134 37.6316 184.092 30.0526 184.177 22.4737C183.04 22.2632 181.903 22.3474 180.766 22.3053C180.64 30.9368 180.598 39.5684 180.766 48.1579ZM197.861 22.3895C197.903 27.3158 197.861 32.2 197.861 37.1263C197.777 39.4421 198.156 41.8842 199.461 43.8632C202.282 48.4526 208.934 49.4632 213.356 46.8105C216.261 45.0842 217.861 41.7158 217.903 38.3895C217.945 33.0421 217.903 27.6947 217.903 22.3474C216.766 22.3474 215.629 22.3053 214.492 22.3053V37.9684C214.535 40.0316 213.861 42.2211 212.303 43.6105C209.819 45.8421 205.65 45.7579 203.25 43.4C201.861 42.0105 201.271 39.9474 201.271 37.9684C201.271 32.7474 201.313 27.5263 201.271 22.3474C200.134 22.3053 198.998 22.3053 197.861 22.3895ZM227.208 23.5684C223.882 25.5053 222.956 30.5158 225.44 33.4632C227.04 35.3158 229.566 35.8632 231.84 36.6211C233.44 37.1263 235.292 37.7579 235.966 39.4421C236.682 41.4632 235.671 43.9895 233.692 44.8316C231.671 45.7158 229.187 45.5053 227.25 44.3684C226.366 43.9474 225.692 43.0632 224.682 42.8105C223.756 43.1053 223.419 44.2 222.998 45.0421C226.198 48.2 231.503 49.2947 235.587 47.1053C239.25 45.1684 240.724 39.6947 238.113 36.3684C235.629 33.5474 231.419 33.7158 228.471 31.6105C226.492 30.2211 226.998 26.9368 229.019 25.8421C231.461 24.4947 234.534 25.2105 236.64 26.8526C237.945 27.6947 238.366 25.6737 238.871 24.8737C235.798 22.0526 230.787 21.3789 227.208 23.5684Z" fill="#25282A" stroke="#25282A" stroke-width="0.094"/>
<path d="M17.2292 22.4316C21.0608 22.3474 24.8503 22.4316 28.6819 22.3895C28.6819 29.5053 28.724 36.6211 28.6819 43.7369C30.9977 43.9895 33.3556 43.8211 35.6714 43.8632V48.0737C29.524 48.0316 23.3766 48.0737 17.2292 48.0316C17.2714 46.6843 17.2714 45.2948 17.2292 43.9053C19.5871 43.8211 21.9871 43.9053 24.3871 43.8632C24.4292 38.0948 24.3871 32.3685 24.3871 26.6001C21.9871 26.6001 19.6292 26.6422 17.2292 26.5579C17.2714 25.2106 17.2714 23.8211 17.2292 22.4316Z" fill="#25282A" stroke="#25282A" stroke-width="0.094"/>
<path d="M89.7768 22.7263C93.9873 21.7579 98.7031 22.6 101.945 25.5053C106.956 30.0527 107.377 38.4316 103.25 43.6527C98.7873 49.2527 89.5241 49.6737 84.3031 44.9158C79.6715 40.579 79.082 32.8316 82.5768 27.6106C84.2189 25.1263 86.9136 23.4421 89.7768 22.7263ZM90.1557 26.8527C87.7136 27.6948 85.9873 29.9263 85.482 32.4106C84.8925 35.2737 85.061 38.4316 86.661 40.9158C89.5241 45.3369 97.1873 45.2948 99.882 40.7053C101.103 38.6421 101.356 36.1579 101.103 33.8C100.893 31.5263 99.9241 29.1684 98.0294 27.8211C95.7978 26.179 92.7241 26.0106 90.1557 26.8527ZM110.493 22.3474C111.798 22.6421 113.608 21.8842 114.493 23.1474C118.914 28.7895 123.208 34.5579 127.714 40.1158C127.545 34.2632 127.714 28.3684 127.629 22.4737C129.061 22.2632 130.535 22.4316 131.966 22.4737C131.966 30.979 131.924 39.5263 132.008 48.0316C130.535 48.1158 128.471 48.6632 127.545 47.1474C123.419 41.6316 119.25 36.1579 115.124 30.6421L114.661 30.3895C114.871 36.2842 114.661 42.2211 114.745 48.1158C113.314 48.1579 111.882 48.1579 110.45 48.1579C110.45 39.5684 110.45 30.9369 110.493 22.3474ZM137.65 22.3895C142.914 22.3053 148.219 22.3053 153.482 22.3895C153.44 23.6106 153.44 24.8737 153.482 26.0948C149.608 26.179 145.735 25.9263 141.903 26.2211C142.071 28.4948 141.819 30.8106 142.029 33.0842C144.85 32.9579 147.671 33.0842 150.493 33C150.535 34.2211 150.535 35.4421 150.535 36.6211C147.714 36.6211 144.893 36.6632 142.071 36.579C141.903 39.1895 141.903 41.8 142.071 44.3684C145.861 44.2842 149.65 44.3684 153.44 44.3684C153.44 45.5895 153.44 46.8105 153.482 48.0316C148.219 48.1579 142.914 48.1158 137.65 48.0737C137.65 39.5263 137.693 30.979 137.65 22.3895ZM159.124 22.4316C161.903 22.2632 164.682 22.3474 167.461 22.3474C169.903 22.4316 172.556 23.0211 174.324 24.7895C176.471 26.979 176.893 30.5158 175.714 33.2948C174.871 35.3579 172.935 36.8316 170.829 37.5053C168.177 38.3474 165.314 37.9684 162.577 38.0527V48.0737C161.44 48.0316 160.303 48.0316 159.124 48.0316C159.166 39.4842 159.166 30.9369 159.124 22.4316ZM162.577 25.0421V35.3158C164.303 35.3158 166.029 35.3579 167.756 35.2737C169.524 35.1474 171.419 34.3053 172.261 32.6632C173.44 30.4737 173.061 27.1895 170.703 25.8842C168.177 24.579 165.271 25.2106 162.577 25.0421ZM180.766 48.1579C180.598 39.5684 180.64 30.9369 180.766 22.3053C181.903 22.3474 183.04 22.2632 184.177 22.4737C184.093 30.0527 184.135 37.6316 184.135 45.2527C187.756 45.2106 191.335 45.2948 194.956 45.2105C195.04 46.179 194.998 47.1474 194.998 48.1579C190.24 48.1579 185.524 48.0737 180.766 48.1579ZM197.861 22.3895C198.998 22.3053 200.135 22.3053 201.271 22.3474C201.314 27.5263 201.271 32.7474 201.271 37.9684C201.271 39.9474 201.861 42.0106 203.25 43.4C205.65 45.7579 209.819 45.8421 212.303 43.6106C213.861 42.2211 214.535 40.0316 214.493 37.9684V22.3053C215.629 22.3053 216.766 22.3474 217.903 22.3474C217.903 27.6948 217.945 33.0421 217.903 38.3895C217.861 41.7158 216.261 45.0842 213.356 46.8106C208.935 49.4632 202.282 48.4527 199.461 43.8632C198.156 41.8842 197.777 39.4421 197.861 37.1263C197.861 32.2 197.903 27.3158 197.861 22.3895ZM227.208 23.5684C230.787 21.379 235.798 22.0527 238.871 24.8737C238.366 25.6737 237.945 27.6948 236.64 26.8527C234.535 25.2106 231.461 24.4948 229.019 25.8421C226.998 26.9369 226.493 30.2211 228.471 31.6106C231.419 33.7158 235.629 33.5474 238.114 36.3684C240.724 39.6948 239.25 45.1684 235.587 47.1053C231.503 49.2948 226.198 48.2 222.998 45.0421C223.419 44.2 223.756 43.1053 224.682 42.8106C225.693 43.0632 226.366 43.9474 227.25 44.3684C229.187 45.5053 231.671 45.7158 233.693 44.8316C235.671 43.9895 236.682 41.4632 235.966 39.4421C235.293 37.7579 233.44 37.1263 231.84 36.6211C229.566 35.8632 227.04 35.3158 225.44 33.4632C222.956 30.5158 223.882 25.5053 227.208 23.5684Z" fill="white" stroke="white" stroke-width="0.094"/>
<path d="M162.577 25.0422C165.271 25.2106 168.177 24.5791 170.703 25.8843C173.061 27.1896 173.44 30.4738 172.261 32.6633C171.419 34.3054 169.524 35.1475 167.756 35.2738C166.029 35.358 164.303 35.3159 162.577 35.3159V25.0422ZM90.1556 26.8527C92.724 26.0106 95.7977 26.179 98.0292 27.8212C99.924 29.1685 100.892 31.5264 101.103 33.8001C101.356 36.158 101.103 38.6422 99.8819 40.7054C97.1871 45.2948 89.524 45.3369 86.6608 40.9159C85.0608 38.4317 84.8924 35.2738 85.4819 32.4106C85.9871 29.9264 87.7135 27.6948 90.1556 26.8527Z" fill="#25282A" stroke="#25282A" stroke-width="0.094"/>
</svg>
