<svg width="219" height="60">
<path fill-rule="evenodd" clip-rule="evenodd" d="M109.221 0C116.229 0 122.334 3.05388 124.672 7.18538C119.46 6.10776 113.893 5.3881 111.199 5.3881C110.659 5.20788 109.761 5.74855 109.941 6.46572V21.7351H108.503V6.46572C108.682 5.74731 107.783 5.20788 107.066 5.3881C104.55 5.3881 98.803 6.10776 93.7716 7.18538C95.9281 3.05388 102.036 0 109.221 0ZM125.208 8.98142C125.388 9.52085 125.569 10.2393 125.569 10.7775C125.569 15.6286 120.896 19.7601 114.432 21.1969L112.276 10.5985C112.096 9.88006 112.096 9.16164 112.096 8.44323C112.189 8.18275 112.359 7.95693 112.584 7.79624C112.809 7.63554 113.078 7.54771 113.354 7.54459C117.306 7.72357 121.438 8.263 125.208 8.98142ZM104.012 21.1969C97.5451 19.7601 92.8742 15.6286 92.8742 10.7775C92.8742 10.238 92.8742 9.51961 93.0544 8.98142C97.0069 8.263 100.958 7.72357 104.911 7.54459C105.63 7.54459 106.169 7.9038 106.169 8.44323C106.349 9.16164 106.169 9.88006 106.169 10.5985L104.012 21.1969ZM97.9031 30.5388V27.3047H87.4848V30.5388H90.5387V38.2636H94.8505V30.5388H97.9031ZM103.292 31.7967L101.137 38.2649H96.8255L100.957 27.306H105.628L109.759 38.2649H105.448L103.292 31.7967ZM119.103 30.5388V27.3047H108.682V30.5388H111.737V38.2636H116.049V30.5388H119.103ZM124.492 31.7967L122.334 38.2649H118.025L122.156 27.306H126.825L130.956 38.2649H126.645L124.492 31.7967ZM10.4194 52.0962V49.0423H-6.10352e-05V52.0962H3.05382V59.821H7.36555V52.0962H10.4194ZM15.8088 53.354L13.4733 59.821H9.34181L13.4733 49.0423H17.964L22.0955 59.821H17.964L15.8088 53.354ZM31.6164 52.0962V49.0423H21.1969V52.0962H24.2508V59.821H28.5625V52.0962H31.6164ZM37.0057 53.354L34.6715 59.821H30.54L34.6715 49.0423H39.1622L43.2937 59.821H39.1622L37.0057 53.354ZM55.6882 58.025C54.9905 58.2466 54.2648 58.3675 53.533 58.3842C51.1975 58.3842 49.7607 56.7671 49.7607 54.4317C49.7607 51.9172 51.3777 50.4792 53.533 50.4792C54.4316 50.4792 55.15 50.6594 55.6882 50.8384L56.0474 49.4015C55.6882 49.2213 54.7896 48.8621 53.3527 48.8621C50.1186 48.8621 47.6042 51.0173 47.6042 54.6107C47.6042 57.8448 49.7594 60 53.1725 60C54.4304 60 55.508 59.8198 55.8672 59.4606L55.6882 58.025ZM61.617 60C64.4906 60 66.6471 58.0237 66.6471 54.2514C66.6471 51.1976 64.8511 48.8621 61.7972 48.8621C58.7433 48.8621 56.5881 51.1976 56.5881 54.4304C56.5881 57.6633 58.5631 60 61.617 60ZM61.617 58.3842C59.8209 58.3842 58.7433 56.5882 58.7433 54.4317C58.7433 52.2752 59.642 50.4792 61.617 50.4792C63.592 50.4792 64.6709 52.2752 64.6709 54.4317C64.6709 56.5882 63.592 58.3842 61.617 58.3842ZM70.2392 59.821V56.0487C70.2392 54.2527 70.2392 52.8146 70.059 51.3778H70.2392C70.7786 52.6356 71.497 53.8923 72.0352 55.1501L74.9089 59.821H77.0641V49.0423H75.0879V52.8146C75.0879 54.4317 75.2681 55.8685 75.2681 57.3053C74.7287 56.0475 74.1905 54.7909 73.472 53.712L70.5984 49.0411H68.4432V59.8198H70.2392V59.821ZM78.8626 59.2816C79.4021 59.6408 80.4797 60 81.7363 60C84.431 60 85.6888 58.5632 85.6888 56.7659C85.6888 55.1488 84.7902 54.2515 82.9941 53.5318C81.5573 52.9924 80.8389 52.6332 80.8389 51.7358C80.8389 51.1963 81.5573 50.4779 82.6349 50.4779C83.7126 50.4779 84.431 50.8371 84.7902 51.0173L85.3284 49.4003C84.7902 49.0411 83.8915 48.8609 82.8139 48.8609C80.4785 48.8609 78.8614 50.1187 78.8614 51.9147C78.8614 53.5318 80.1192 54.4292 81.9153 55.1488C83.1731 55.508 83.7113 56.0475 83.7113 56.9449C83.7113 57.8423 82.9929 58.3817 81.7351 58.3817C80.8364 58.3817 79.7588 58.0225 79.2206 57.6633L78.8626 59.2816ZM87.4848 49.0423V55.1501C87.4848 58.5632 89.1019 60 91.6163 60C94.311 60 95.9281 58.5632 95.9281 55.1501V49.0423H93.9518V55.3303C93.9518 57.4856 93.0544 58.3842 91.6176 58.3842C90.3597 58.3842 89.4611 57.4856 89.4611 55.3303V49.0423H87.4848ZM98.2635 59.821H104.552V58.204H100.241V49.0423H98.2648V59.821H98.2635ZM106.527 59.821H108.503V50.6594H111.737V49.0423H103.473V50.6594H106.527V59.821ZM117.306 56.7671L118.382 59.821H120.36L116.947 49.0423H114.433L111.02 59.821H112.996L113.895 56.7671H117.306ZM114.253 55.3303L114.971 52.6356C115.33 51.9172 115.51 51.1988 115.51 50.6594H115.691C115.871 51.1988 115.871 51.9172 116.23 52.6356L116.949 55.3303H114.253ZM123.771 59.821V56.0487C123.771 54.2527 123.771 52.8146 123.591 51.3778H123.771C124.133 52.6356 124.851 53.8923 125.569 55.1501L128.443 59.821H130.417V49.0423H128.623V52.8146C128.623 54.4317 128.623 55.8685 128.804 57.3053C128.262 56.0475 127.723 54.7909 127.005 53.712L124.133 49.0411H121.977V59.8198H123.771V59.821ZM140.118 58.025C139.424 58.2621 138.696 58.3834 137.963 58.3842C135.63 58.3842 134.193 56.7671 134.193 54.4317C134.193 51.9172 135.81 50.4792 137.963 50.4792C138.861 50.4792 139.58 50.6594 140.118 50.8384L140.477 49.4015C140.118 49.2213 139.219 48.8621 137.963 48.8621C134.729 48.8621 132.214 51.0173 132.214 54.6107C132.214 57.8448 134.193 60 137.604 60C139.04 60 139.939 59.8198 140.477 59.4606L140.118 58.025ZM146.585 59.821V55.3303L150.178 49.0423H147.843L146.585 51.737C146.226 52.6356 146.046 53.1738 145.686 53.8922C145.327 53.1738 145.147 52.6344 144.788 51.737L143.53 49.0423H141.194L144.607 55.3303V59.821H146.585ZM154.131 59.2816C155.081 59.7508 156.125 59.9965 157.185 60C159.879 60 161.137 58.5632 161.137 56.7659C161.137 55.1488 160.239 54.2515 158.443 53.5318C157.006 52.9924 156.287 52.6332 156.287 51.7358C156.287 51.1963 156.827 50.4779 158.083 50.4779C159.161 50.4779 159.879 50.8371 160.239 51.0173L160.778 49.4003C160.239 49.0411 159.341 48.8609 158.083 48.8609C155.748 48.8609 154.311 50.1187 154.311 51.9147C154.311 53.5318 155.569 54.4292 157.185 55.1488C158.621 55.508 159.161 56.0475 159.161 56.9449C159.161 57.8423 158.443 58.3817 157.185 58.3817C156.286 58.3817 155.208 58.0225 154.67 57.6633L154.131 59.2816ZM169.041 53.354H164.909V50.6594H169.221V49.0423H162.933V59.821H169.4V58.204H164.909V54.9699H169.041V53.354ZM171.196 59.821H173.172V55.3303H174.071C175.329 55.5105 175.867 55.8697 176.047 57.3066C176.407 58.5644 176.587 59.4618 176.766 59.821H178.742C178.562 59.4618 178.383 58.204 178.024 56.7671C177.664 55.6895 177.305 54.9711 176.407 54.7909V54.6107C177.484 54.2514 178.383 53.3528 178.383 51.916C178.386 51.5147 178.309 51.1168 178.154 50.7464C178 50.3759 177.772 50.0406 177.484 49.7607C176.766 49.2213 175.688 49.0423 174.25 49.0423C172.992 49.0423 171.915 49.0423 171.196 49.2225V59.821ZM173.172 50.4792H174.43C175.688 50.4792 176.407 51.0186 176.407 52.0962C176.407 53.1738 175.688 53.8922 174.251 53.8922H173.174V50.4792H173.172ZM185.029 59.821L188.801 49.0423H186.646L185.209 53.8922C184.67 55.3291 184.31 56.5869 184.131 57.8448H183.951C183.771 56.5869 183.412 55.3303 183.053 53.8922L181.435 49.0423H179.28L182.874 59.821H185.029ZM192.035 59.821V49.0423H190.059V59.821H192.035ZM201.556 58.025C200.862 58.2621 200.134 58.3834 199.401 58.3842C197.065 58.3842 195.629 56.7671 195.629 54.4317C195.809 51.9172 197.246 50.4792 199.401 50.4792C200.299 50.4792 201.018 50.6594 201.556 50.8384L202.095 49.4015C201.556 49.2213 200.659 48.8621 199.401 48.8621C196.167 48.8621 193.652 51.0173 193.652 54.6107C193.652 57.8448 195.629 60 199.221 60C200.478 60 201.556 59.8198 201.915 59.4606L201.556 58.025ZM209.64 53.354H205.509V50.6594H209.82V49.0423H203.532V59.821H210.18V58.204H205.509V54.9699H209.64V53.354ZM211.436 59.2816C211.976 59.6408 213.232 60 214.31 60C217.004 60 218.441 58.5632 218.441 56.7659C218.441 55.1488 217.543 54.2515 215.568 53.5318C214.131 52.9924 213.591 52.6332 213.591 51.7358C213.591 51.1963 214.131 50.4779 215.387 50.4779C216.286 50.4779 217.004 50.8371 217.543 51.0173L217.902 49.4003C217.362 49.0411 216.465 48.8609 215.387 48.8609C213.052 48.8609 211.615 50.1187 211.615 51.9147C211.615 53.5318 212.693 54.4292 214.489 55.1488C215.747 55.508 216.285 56.0475 216.285 56.9449C216.285 57.8423 215.745 58.3817 214.489 58.3817C213.411 58.3817 212.512 58.0225 211.794 57.6633L211.436 59.2816Z" fill="#25282A"/>
</svg>
